<?xml version="1.0"?>
<svg xmlns="http://www.w3.org/2000/svg" height="512px" viewBox="-86 0 511 511.99969" width="512px"><path d="m324.949219 70.703125h-35.511719v-55.703125c0-4.675781-2.179688-9.085938-5.894531-11.921875-3.714844-2.839844-8.542969-3.78125-13.054688-2.546875l-258.9375 70.703125c-6.523437 1.78125-11.050781 7.707031-11.050781 14.46875v411.296875c0 8.285156 6.714844 15 15 15h309.449219c8.285156 0 15-6.714844 15-15v-411.296875c0-8.28125-6.714844-15-15-15zm-294.449219 30h279.449219v381.296875h-279.449219zm228.9375-30h-132.0625l132.0625-36.058594zm0 0" fill="#FFFFFF"/><path d="m211.253906 154.773438c-.003906 0 0 0 0 0-16.199218 0-30.839844 6.925781-41.085937 17.960937-10.25-10.976563-24.84375-17.855469-40.972657-17.855469-.003906 0 0 0-.003906 0-14.957031 0-29.023437 5.808594-39.601562 16.359375-10.597656 10.558594-16.429688 24.605469-16.429688 39.546875 0 18.625 11.0625 31.980469 19.136719 41.730469.207031.25.425781.492187.648437.726563l66.367188 70.277343c2.835938 3 6.78125 4.699219 10.90625 4.699219h.003906c4.128906 0 8.074219-1.703125 10.90625-4.707031l66.441406-70.417969c.148438-.15625.292969-.316406.433594-.476562 9.597656-10.417969 19.285156-23.542969 19.285156-41.933594 0-30.828125-25.136718-55.910156-56.035156-55.910156zm14.394532 77.832031c-.078126.085937-.15625.171875-.234376.261719l-55.199218 58.5-55.121094-58.367188c-7.003906-8.46875-11.933594-15.066406-11.933594-22.214844 0-6.914062 2.703125-13.414062 7.609375-18.304687 4.917969-4.902344 11.460938-7.601563 18.425781-7.601563 14.257813 0 25.933594 11.542969 26.027344 25.734375.054688 8.246094 6.757813 14.902344 15 14.902344h.019532c8.253906-.011719 14.949218-6.6875 14.980468-14.941406.058594-14.226563 11.734375-25.800781 26.03125-25.800781 14.355469 0 26.035156 11.625 26.035156 25.910156 0 6.824218-3.15625 12.765625-11.640624 21.921875zm0 0" fill="#FFFFFF"/><path d="m126.050781 396.863281h88.347657c8.285156 0 15-6.714843 15-15 0-8.285156-6.714844-15-15-15h-88.347657c-8.285156 0-15 6.714844-15 15 0 8.285157 6.714844 15 15 15zm0 0" fill="#FFFFFF"/><path d="m240.292969 413.425781h-140.136719c-8.285156 0-15 6.71875-15 15 0 8.285157 6.714844 15 15 15h140.136719c8.285156 0 15-6.714843 15-15 0-8.28125-6.714844-15-15-15zm0 0" fill="#FFFFFF"/></svg>
